# xmcd
#
# Track frame offsets:
#	150
#	15716
#	29415
#	41524
#	51185
#	66223
#	79026
#	92445
#	106508
#	120122
#	134257
#	144057
#	157092
#	167293
#
# Disc length: 2272 seconds
#
# Revision: 0
# Processed by: cddbd v1.4PL0 Copyright (c) Steve Scherf et al.
# Submitted via: dBpowerAMP V4.0
#
DISCID=9d08de0e
DTITLE=Bret Graham - 2001
DYEAR=1900
DGENRE=Country
TTITLE0=Mudcat On The Line
TTITLE1=Not Fishin'
TTITLE2=The Only Other Woman
TTITLE3=Time and Tears
TTITLE4=Daddy Took The Pickup
TTITLE5=Down At The 99
TTITLE6=The Drunk
TTITLE7=Honkin' Out Some Hank
TTITLE8=Bumper Sticker Song
TTITLE9=Pretty Blue Dress
TTITLE10=Andrea
TTITLE11=The Mexican Rose
TTITLE12=Stars Over Mexico
TTITLE13=Time and Tears (reprise)
EXTD=
EXTT0=
EXTT1=
EXTT2=
EXTT3=
EXTT4=
EXTT5=
EXTT6=
EXTT7=
EXTT8=
EXTT9=
EXTT10=
EXTT11=
EXTT12=
EXTT13=
PLAYORDER=
